<svg width="420" height="120" viewBox="0 0 420 120" fill="none" xmlns="http://www.w3.org/2000/svg">
  <defs>
    <linearGradient id="roof" x1="20" y1="10" x2="95" y2="70" gradientUnits="userSpaceOnUse">
      <stop stop-color="#1DA8F0"/>
      <stop offset="1" stop-color="#0B57C0"/>
    </linearGradient>
    <linearGradient id="leaf" x1="18" y1="72" x2="95" y2="102" gradientUnits="userSpaceOnUse">
      <stop stop-color="#00B2A9"/>
      <stop offset="1" stop-color="#56C83F"/>
    </linearGradient>
    <linearGradient id="pill" x1="146" y1="82" x2="236" y2="112" gradientUnits="userSpaceOnUse">
      <stop stop-color="#1DA8F0"/>
      <stop offset="1" stop-color="#0B57C0"/>
    </linearGradient>
  </defs>

  <path d="M18 58L56 30L95 58V76L56 49L18 76V58Z" fill="url(#roof)"/>
  <path d="M18 82L44 62V86L18 102V82Z" fill="url(#leaf)"/>
  <path d="M95 82L69 62V86L95 102V82Z" fill="#56C83F"/>
  <rect x="52" y="56" width="8" height="8" fill="#1E3570"/>
  <rect x="62" y="56" width="8" height="8" fill="#1E3570"/>
  <rect x="52" y="66" width="8" height="8" fill="#1E3570"/>
  <rect x="62" y="66" width="8" height="8" fill="#1E3570"/>

  <text x="116" y="70" font-family="Inter, Arial, sans-serif" font-size="62" font-weight="800" fill="#1E3570">Track</text>
  <text x="298" y="70" font-family="Inter, Arial, sans-serif" font-size="62" font-weight="800" fill="#56C83F">Imob</text>

  <rect x="146" y="82" width="95" height="30" rx="15" fill="url(#pill)"/>
  <text x="166" y="104" font-family="Inter, Arial, sans-serif" font-size="28" font-weight="800" fill="#FFFFFF">PRO</text>
</svg>
